<?xml version="1.0" encoding="UTF-8" standalone="no"?>
<!-- Created with Inkscape (http://www.inkscape.org/) -->

<svg
   width="289.80789mm"
   height="54.654453mm"
   viewBox="0 0 289.80789 54.654453"
   version="1.1"
   id="svg1"
   xml:space="preserve"
   sodipodi:docname="logo.svg"
   xmlns:inkscape="http://www.inkscape.org/namespaces/inkscape"
   xmlns:sodipodi="http://sodipodi.sourceforge.net/DTD/sodipodi-0.dtd"
   xmlns="http://www.w3.org/2000/svg"
   xmlns:svg="http://www.w3.org/2000/svg"><sodipodi:namedview
     id="namedview1"
     pagecolor="#505050"
     bordercolor="#eeeeee"
     borderopacity="1"
     inkscape:showpageshadow="0"
     inkscape:pageopacity="0"
     inkscape:pagecheckerboard="0"
     inkscape:deskcolor="#505050"
     inkscape:document-units="mm" /><defs
     id="defs1"><clipPath
       clipPathUnits="userSpaceOnUse"
       id="clipPath2"><path
         d="M 0,154.926 H 821.504 V 0 H 0 Z"
         transform="translate(-56.251201,-41.073699)"
         id="path2" /></clipPath><clipPath
       clipPathUnits="userSpaceOnUse"
       id="clipPath4"><path
         d="M 0,154.926 H 821.504 V 0 H 0 Z"
         transform="translate(-18.6262,-28.379303)"
         id="path4" /></clipPath><clipPath
       clipPathUnits="userSpaceOnUse"
       id="clipPath6"><path
         d="M 0,154.926 H 821.504 V 0 H 0 Z"
         transform="translate(-89.079302,-27.598103)"
         id="path6" /></clipPath><clipPath
       clipPathUnits="userSpaceOnUse"
       id="clipPath8"><path
         d="M 0,154.926 H 821.504 V 0 H 0 Z"
         transform="translate(-33.186701,-82.073702)"
         id="path8" /></clipPath><clipPath
       clipPathUnits="userSpaceOnUse"
       id="clipPath10"><path
         d="M 0,154.926 H 821.504 V 0 H 0 Z"
         transform="translate(-69.119302,-75.205502)"
         id="path10" /></clipPath><clipPath
       clipPathUnits="userSpaceOnUse"
       id="clipPath12"><path
         d="M 0,154.926 H 821.504 V 0 H 0 Z"
         transform="translate(-70.505102,-87.710402)"
         id="path12" /></clipPath><clipPath
       clipPathUnits="userSpaceOnUse"
       id="clipPath14"><path
         d="M 0,154.926 H 821.504 V 0 H 0 Z"
         transform="translate(-4.1584001,-54.099001)"
         id="path14" /></clipPath><clipPath
       clipPathUnits="userSpaceOnUse"
       id="clipPath16"><path
         d="M 0,154.926 H 821.504 V 0 H 0 Z"
         transform="translate(-26.7004,-49.791399)"
         id="path16" /></clipPath><clipPath
       clipPathUnits="userSpaceOnUse"
       id="clipPath18"><path
         d="M 0,154.926 H 821.504 V 0 H 0 Z"
         transform="translate(-27.5686,-57.633699)"
         id="path18" /></clipPath><clipPath
       clipPathUnits="userSpaceOnUse"
       id="clipPath20"><path
         d="M 0,154.926 H 821.504 V 0 H 0 Z"
         transform="translate(-74.611502,-53.317801)"
         id="path20" /></clipPath><clipPath
       clipPathUnits="userSpaceOnUse"
       id="clipPath22"><path
         d="M 0,154.926 H 821.504 V 0 H 0 Z"
         transform="translate(-97.149602,-49.011204)"
         id="path22" /></clipPath><clipPath
       clipPathUnits="userSpaceOnUse"
       id="clipPath24"><path
         d="M 0,154.926 H 821.504 V 0 H 0 Z"
         transform="translate(-98.0197,-56.854899)"
         id="path24" /></clipPath><clipPath
       clipPathUnits="userSpaceOnUse"
       id="clipPath26"><path
         d="M 0,154.926 H 821.504 V 0 H 0 Z"
         transform="translate(-15.168201,-80.187902)"
         id="path26" /></clipPath><clipPath
       clipPathUnits="userSpaceOnUse"
       id="clipPath28"><path
         d="M 0,154.926 H 821.504 V 0 H 0 Z"
         transform="translate(-85.8127,-78.912999)"
         id="path28" /></clipPath><clipPath
       clipPathUnits="userSpaceOnUse"
       id="clipPath30"><path
         d="M 0,154.926 H 821.504 V 0 H 0 Z"
         transform="translate(-10.2121,-114.1674)"
         id="path30" /></clipPath><clipPath
       clipPathUnits="userSpaceOnUse"
       id="clipPath32"><path
         d="M 0,154.926 H 821.504 V 0 H 0 Z"
         transform="translate(-10.4592,-129.2016)"
         id="path32" /></clipPath><clipPath
       clipPathUnits="userSpaceOnUse"
       id="clipPath34"><path
         d="M 0,154.926 H 821.504 V 0 H 0 Z"
         transform="translate(-24.359601,-114.1132)"
         id="path34" /></clipPath><clipPath
       clipPathUnits="userSpaceOnUse"
       id="clipPath36"><path
         d="M 0,154.926 H 821.504 V 0 H 0 Z"
         transform="translate(-59.165201,-140.6513)"
         id="path36" /></clipPath><clipPath
       clipPathUnits="userSpaceOnUse"
       id="clipPath38"><path
         d="M 0,154.926 H 821.504 V 0 H 0 Z"
         transform="translate(-607.88201,-23.744003)"
         id="path38" /></clipPath><clipPath
       clipPathUnits="userSpaceOnUse"
       id="clipPath40"><path
         d="M 0,154.926 H 821.504 V 0 H 0 Z"
         transform="translate(-645.83512,-49.323204)"
         id="path40" /></clipPath><clipPath
       clipPathUnits="userSpaceOnUse"
       id="clipPath42"><path
         d="M 0,154.926 H 821.504 V 0 H 0 Z"
         transform="translate(-708.92792,-44.370001)"
         id="path42" /></clipPath><clipPath
       clipPathUnits="userSpaceOnUse"
       id="clipPath44"><path
         d="M 0,154.926 H 821.504 V 0 H 0 Z"
         transform="translate(-751.15554,-31.143001)"
         id="path44" /></clipPath><clipPath
       clipPathUnits="userSpaceOnUse"
       id="clipPath46"><path
         d="M 0,154.926 H 821.504 V 0 H 0 Z"
         transform="translate(-793.45719,-48.524304)"
         id="path46" /></clipPath><clipPath
       clipPathUnits="userSpaceOnUse"
       id="clipPath48"><path
         d="M 0,154.926 H 821.504 V 0 H 0 Z"
         transform="translate(-315.36831,-42.945204)"
         id="path48" /></clipPath><clipPath
       clipPathUnits="userSpaceOnUse"
       id="clipPath50"><path
         d="M 0,154.926 H 821.504 V 0 H 0 Z"
         transform="translate(-405.25021,-27.595598)"
         id="path50" /></clipPath><clipPath
       clipPathUnits="userSpaceOnUse"
       id="clipPath52"><path
         d="M 0,154.926 H 821.504 V 0 H 0 Z"
         transform="translate(-442.62911,-49.308504)"
         id="path52" /></clipPath><clipPath
       clipPathUnits="userSpaceOnUse"
       id="clipPath54"><path
         d="M 0,154.926 H 821.504 V 0 H 0 Z"
         transform="translate(-518.47871,-89.249402)"
         id="path54" /></clipPath><clipPath
       clipPathUnits="userSpaceOnUse"
       id="clipPath56"><path
         d="M 0,154.926 H 821.504 V 0 H 0 Z"
         transform="translate(-271.63401,-48.583899)"
         id="path56" /></clipPath></defs><g
     id="layer-MC0"
     inkscape:groupmode="layer"
     inkscape:label="Layer 1"
     transform="matrix(0.26458334,0,0,0.26458334,-2.0445272e-4,-3.7700484e-8)"><path
       id="path1"
       d="m 0,0 -14.137,0.077 c -0.429,1.69 -0.669,3.557 -0.658,5.523 0.04,7.424 3.546,13.426 7.829,13.402 C -2.682,18.979 0.758,12.94 0.718,5.516 0.707,3.551 0.449,1.686 0,0 m -26.348,32.676 -0.365,-64.478 h 39.207 l 0.365,64.266 z"
       style="fill:#093158;fill-opacity:1;fill-rule:nonzero;stroke:none"
       transform="matrix(1.3333333,0,0,-1.3333333,75.0016,151.80307)"
       clip-path="url(#clipPath2)" /><path
       id="path3"
       d="m 0,0 -8.867,0.048 c -0.271,1.058 -0.421,2.228 -0.414,3.465 0.025,4.655 2.224,8.419 4.914,8.404 C -1.68,11.903 0.477,8.116 0.451,3.46 0.445,2.224 0.282,1.055 0,0 m -16.527,20.498 -0.23,-39.605 H 7.837 l 0.229,39.471 z"
       style="fill:#093158;fill-opacity:1;fill-rule:nonzero;stroke:none"
       transform="matrix(1.3333333,0,0,-1.3333333,24.834933,168.72893)"
       clip-path="url(#clipPath4)" /><path
       id="path5"
       d="m 0,0 -8.869,0.048 c -0.271,1.06 -0.42,2.229 -0.414,3.466 0.025,4.655 2.225,8.418 4.914,8.403 2.686,-0.014 4.846,-3.8 4.821,-8.456 C 0.445,2.225 0.282,1.057 0,0 m -16.527,20.496 -0.23,-38.822 H 7.835 l 0.229,38.689 z"
       style="fill:#093158;fill-opacity:1;fill-rule:nonzero;stroke:none"
       transform="matrix(1.3333333,0,0,-1.3333333,118.7724,169.77053)"
       clip-path="url(#clipPath6)" /><path
       id="path7"
       d="M 0,0 16.505,52.963 32.437,-0.175 Z"
       style="fill:#093158;fill-opacity:1;fill-rule:nonzero;stroke:none"
       transform="matrix(1.3333333,0,0,-1.3333333,44.248933,97.1364)"
       clip-path="url(#clipPath8)" /><path
       id="path9"
       d="m 0,0 -39.207,0.212 -0.059,-10.841 39.207,-0.213 z"
       style="fill:#051c36;fill-opacity:1;fill-rule:nonzero;stroke:none"
       transform="matrix(1.3333333,0,0,-1.3333333,92.159067,106.294)"
       clip-path="url(#clipPath10)" /><path
       id="path11"
       d="m 0,0 -3.472,0.019 c -0.654,0.003 -1.189,-0.522 -1.193,-1.177 l -0.016,-2.985 -4.168,0.022 0.016,2.986 c 0.004,0.655 -0.524,1.186 -1.179,1.189 l -2.635,0.014 c -0.654,0.004 -1.188,-0.522 -1.192,-1.176 l -0.015,-2.985 -4.171,0.022 0.016,2.986 c 0.003,0.654 -0.524,1.185 -1.178,1.189 l -3.471,0.019 c -0.654,0.003 -1.185,-0.522 -1.189,-1.177 l -0.015,-2.985 -4.174,0.022 0.016,2.985 c 0.004,0.656 -0.521,1.186 -1.176,1.19 l -3.472,0.019 C -33.322,0.18 -33.854,-0.345 -33.858,-1 l -0.016,-2.985 -4.172,0.023 0.017,2.984 c 0.004,0.656 -0.524,1.186 -1.178,1.19 l -3.47,0.019 c -0.654,0.003 -1.186,-0.522 -1.189,-1.177 l -0.029,-5.127 -0.002,-0.62 -0.047,-8.552 c -0.006,-1.123 0.899,-2.038 2.023,-2.044 l 40.976,-0.222 c 1.123,-0.006 2.039,0.899 2.045,2.022 l 0.046,8.552 0.003,0.62 0.029,5.128 C 1.181,-0.535 0.653,-0.003 0,0"
       style="fill:#093158;fill-opacity:1;fill-rule:nonzero;stroke:none"
       transform="matrix(1.3333333,0,0,-1.3333333,94.0068,89.6208)"
       clip-path="url(#clipPath12)" /><path
       id="path13"
       d="M 0,0 10.353,33.22 20.344,-0.11 Z"
       style="fill:#093158;fill-opacity:1;fill-rule:nonzero;stroke:none"
       transform="matrix(1.3333333,0,0,-1.3333333,5.5445333,134.436)"
       clip-path="url(#clipPath14)" /><path
       id="path15"
       d="m 0,0 -24.594,0.133 -0.037,-6.806 24.594,-0.134 z"
       style="fill:#051c36;fill-opacity:1;fill-rule:nonzero;stroke:none"
       transform="matrix(1.3333333,0,0,-1.3333333,35.600533,140.17947)"
       clip-path="url(#clipPath16)" /><path
       id="path17"
       d="M 0,0 -2.178,0.012 C -2.59,0.014 -2.921,-0.316 -2.924,-0.725 l -0.01,-1.873 -2.618,0.015 0.011,1.872 c 0.002,0.409 -0.328,0.743 -0.738,0.745 L -7.934,0.043 C -8.345,0.045 -8.677,-0.285 -8.68,-0.694 l -0.009,-1.873 -2.62,0.014 0.01,1.873 c 0.003,0.409 -0.325,0.743 -0.736,0.745 l -2.178,0.012 c -0.411,0.002 -0.744,-0.328 -0.747,-0.737 l -0.01,-1.873 -2.619,0.014 0.01,1.873 c 0.003,0.409 -0.325,0.743 -0.736,0.745 l -2.176,0.012 c -0.412,0.002 -0.746,-0.328 -0.749,-0.737 l -0.01,-1.873 -2.616,0.015 0.01,1.872 c 0.002,0.409 -0.327,0.743 -0.739,0.745 l -2.177,0.012 c -0.409,0.002 -0.746,-0.328 -0.748,-0.737 l -0.017,-3.219 -0.002,-0.387 -0.029,-5.364 c -0.004,-0.705 0.567,-1.279 1.271,-1.283 l 25.701,-0.139 c 0.707,-0.004 1.282,0.565 1.285,1.269 l 0.029,5.364 0.003,0.388 0.016,3.218 C 0.74,-0.336 0.411,-0.002 0,0"
       style="fill:#093158;fill-opacity:1;fill-rule:nonzero;stroke:none"
       transform="matrix(1.3333333,0,0,-1.3333333,36.758133,129.72307)"
       clip-path="url(#clipPath18)" /><path
       id="path19"
       d="M 0,0 10.353,33.223 20.345,-0.11 Z"
       style="fill:#093158;fill-opacity:1;fill-rule:nonzero;stroke:none"
       transform="matrix(1.3333333,0,0,-1.3333333,99.482,135.4776)"
       clip-path="url(#clipPath20)" /><path
       id="path21"
       d="m 0,0 -24.592,0.133 -0.037,-6.805 24.592,-0.133 z"
       style="fill:#051c36;fill-opacity:1;fill-rule:nonzero;stroke:none"
       transform="matrix(1.3333333,0,0,-1.3333333,129.5328,141.21973)"
       clip-path="url(#clipPath22)" /><path
       id="path23"
       d="m 0,0 -2.18,0.012 c -0.408,0.002 -0.743,-0.331 -0.745,-0.74 l -0.01,-1.874 -2.615,0.015 0.011,1.874 c 0.002,0.408 -0.328,0.745 -0.74,0.747 l -1.654,0.009 c -0.412,0.002 -0.746,-0.331 -0.749,-0.739 l -0.009,-1.874 -2.615,0.014 0.01,1.874 c 0.002,0.409 -0.33,0.745 -0.736,0.747 l -2.18,0.012 c -0.41,0.002 -0.745,-0.33 -0.748,-0.74 l -0.01,-1.874 -2.616,0.015 0.011,1.874 c 0.002,0.409 -0.328,0.745 -0.738,0.747 l -2.18,0.012 c -0.407,0.002 -0.744,-0.331 -0.746,-0.739 l -0.01,-1.874 -2.613,0.014 0.009,1.874 c 0.002,0.408 -0.331,0.745 -0.739,0.747 l -2.179,0.012 c -0.411,0.002 -0.743,-0.331 -0.746,-0.739 l -0.016,-3.219 -0.003,-0.388 -0.028,-5.366 c -0.004,-0.701 0.562,-1.277 1.265,-1.281 l 25.707,-0.139 c 0.704,-0.004 1.279,0.566 1.282,1.267 l 0.03,5.366 0.002,0.388 0.017,3.219 C 0.741,-0.338 0.409,-0.002 0,0"
       style="fill:#093158;fill-opacity:1;fill-rule:nonzero;stroke:none"
       transform="matrix(1.3333333,0,0,-1.3333333,130.69293,130.76147)"
       clip-path="url(#clipPath24)" /><path
       id="path25"
       d="m 0,0 0.043,7.943 c 0.395,0.338 3.901,3.12 14.16,6.966 C 10.527,14.593 0.8,16.91 0.093,17.073 L 0.099,18.14 -1.08,18.146 -1.179,0.006"
       style="fill:#093158;fill-opacity:1;fill-rule:nonzero;stroke:none"
       transform="matrix(1.3333333,0,0,-1.3333333,20.224267,99.6508)"
       clip-path="url(#clipPath26)" /><path
       id="path27"
       d="M 0,0 0.043,7.946 C 0.44,8.281 3.942,11.064 14.201,14.911 10.528,14.593 0.798,16.91 0.093,17.073 l 0.006,1.068 -1.18,0.006 -0.098,-18.141"
       style="fill:#093158;fill-opacity:1;fill-rule:nonzero;stroke:none"
       transform="matrix(1.3333333,0,0,-1.3333333,114.41693,101.35067)"
       clip-path="url(#clipPath28)" /><path
       id="path29"
       d="m 0,0 6.969,-0.038 c 0,0 2.656,23.31 28.231,27.641 0,0 -21.529,1.478 -35.2,-27.603"
       style="fill:#093158;fill-opacity:1;fill-rule:nonzero;stroke:none"
       transform="matrix(1.3333333,0,0,-1.3333333,13.616133,54.3448)"
       clip-path="url(#clipPath30)" /><path
       id="path31"
       d="m 0,0 -0.02,-5.458 c 0,0 15.236,20.123 34.836,19.576 0,0 -13.121,3.295 -34.816,-14.118"
       style="fill:#093158;fill-opacity:1;fill-rule:nonzero;stroke:none"
       transform="matrix(1.3333333,0,0,-1.3333333,13.9456,34.2992)"
       clip-path="url(#clipPath32)" /><path
       id="path33"
       d="m 0,0 5.021,0.028 c 0,0 -0.567,19.959 16.926,26.119 C 21.947,26.147 6.557,25.914 0,0"
       style="fill:#093158;fill-opacity:1;fill-rule:nonzero;stroke:none"
       transform="matrix(1.3333333,0,0,-1.3333333,32.479467,54.417067)"
       clip-path="url(#clipPath34)" /><path
       id="path35"
       d="m 0,0 -2.638,1.857 -0.756,-4.878 -0.96,4.82 -2.471,-1.884 1.946,2.747 -4.859,0.501 4.8,0.888 L -6.789,6.6 -4.205,5.039 -3.588,9.66 -2.751,5.03 -0.103,6.563 -2.225,4.036 2.646,3.249 -2.035,2.711 Z m -7.786,12.042 0.013,2.216 -3.099,0.017 -0.203,-37.61 3.097,-0.018 0.09,16.472 c 1.041,0.694 10.244,6.454 37.209,14.399 -9.659,-0.646 -35.25,4.188 -37.107,4.524"
       style="fill:#093158;fill-opacity:1;fill-rule:nonzero;stroke:none"
       transform="matrix(1.3333333,0,0,-1.3333333,78.886933,19.032933)"
       clip-path="url(#clipPath36)" /><path
       id="path37"
       d="m 0,0 c -0.009,-1.486 0.241,-2.762 0.743,-3.796 0.498,-1.059 1.198,-1.923 2.104,-2.584 0.888,-0.676 1.918,-1.165 3.104,-1.49 1.168,-0.31 2.443,-0.476 3.813,-0.484 1.475,-0.008 2.744,0.157 3.795,0.504 1.049,0.342 1.898,0.772 2.551,1.309 0.653,0.538 1.131,1.165 1.424,1.875 0.288,0.696 0.44,1.407 0.444,2.128 0.007,1.474 -0.331,2.574 -0.991,3.281 C 16.326,1.452 15.594,1.956 14.803,2.238 13.436,2.762 11.839,3.237 10.009,3.714 8.197,4.166 5.956,4.768 3.279,5.495 1.63,5.946 0.248,6.527 -0.846,7.237 -1.953,7.948 -2.821,8.73 -3.462,9.61 c -0.65,0.864 -1.102,1.792 -1.365,2.768 -0.271,0.968 -0.401,1.967 -0.396,2.975 0.011,1.95 0.432,3.63 1.244,5.064 0.827,1.42 1.902,2.602 3.24,3.529 1.346,0.934 2.866,1.615 4.561,2.056 1.711,0.45 3.421,0.661 5.155,0.651 2.02,-0.01 3.927,-0.282 5.715,-0.817 1.784,-0.534 3.348,-1.32 4.702,-2.384 1.347,-1.04 2.414,-2.348 3.194,-3.891 0.788,-1.537 1.178,-3.316 1.167,-5.34 l -6.764,0.037 c -0.171,2.5 -1.013,4.265 -2.518,5.297 -1.516,1.04 -3.447,1.567 -5.791,1.579 C 7.881,21.139 7.068,21.054 6.24,20.902 5.409,20.734 4.645,20.477 3.955,20.104 3.269,19.73 2.7,19.218 2.244,18.564 1.79,17.919 1.561,17.11 1.556,16.127 1.548,14.756 1.966,13.676 2.808,12.91 3.651,12.119 4.76,11.524 6.134,11.123 c 0.137,-0.041 0.711,-0.192 1.699,-0.468 0.991,-0.276 2.102,-0.576 3.328,-0.91 1.228,-0.335 2.429,-0.653 3.597,-0.97 1.174,-0.31 2.016,-0.544 2.517,-0.694 1.261,-0.404 2.356,-0.947 3.3,-1.639 0.924,-0.686 1.712,-1.484 2.336,-2.364 0.628,-0.904 1.094,-1.841 1.394,-2.858 0.298,-1.017 0.445,-2.025 0.44,-3.049 -0.012,-2.146 -0.458,-4.011 -1.355,-5.538 -0.889,-1.527 -2.057,-2.774 -3.514,-3.749 -1.447,-0.967 -3.086,-1.671 -4.938,-2.102 -1.843,-0.442 -3.728,-0.652 -5.636,-0.642 -2.21,0.012 -4.284,0.285 -6.227,0.837 -1.951,0.551 -3.641,1.387 -5.081,2.526 -1.437,1.121 -2.587,2.56 -3.445,4.31 -0.86,1.761 -1.288,3.84 -1.317,6.224 z"
       style="fill:#093158;fill-opacity:1;fill-rule:nonzero;stroke:none"
       transform="matrix(1.3333333,0,0,-1.3333333,810.50933,174.90933)"
       clip-path="url(#clipPath38)" /><path
       id="path39"
       d="m 0,0 31.312,-0.169 -0.031,-5.848 -12.295,0.066 -0.177,-32.836 -6.778,0.037 0.178,32.836 -12.24,0.066 z"
       style="fill:#093158;fill-opacity:1;fill-rule:nonzero;stroke:none"
       transform="matrix(1.3333333,0,0,-1.3333333,861.11347,140.80373)"
       clip-path="url(#clipPath40)" /><path
       id="path41"
       d="m 0,0 c -2.067,0.011 -3.843,-0.389 -5.349,-1.208 -1.505,-0.835 -2.723,-1.935 -3.674,-3.313 -0.952,-1.387 -1.649,-2.964 -2.119,-4.731 -0.458,-1.775 -0.691,-3.567 -0.701,-5.41 -0.01,-1.852 0.203,-3.655 0.643,-5.434 0.451,-1.764 1.13,-3.34 2.066,-4.745 0.937,-1.389 2.143,-2.511 3.639,-3.338 1.497,-0.843 3.267,-1.279 5.336,-1.29 2.054,-0.011 3.836,0.406 5.336,1.233 1.508,0.81 2.726,1.918 3.683,3.298 0.934,1.395 1.639,2.963 2.107,4.722 0.469,1.775 0.699,3.575 0.709,5.426 0.01,1.843 -0.201,3.638 -0.651,5.418 -0.448,1.771 -1.136,3.356 -2.054,4.754 C 8.027,-3.229 6.822,-2.117 5.323,-1.265 3.831,-0.43 2.055,-0.011 0,0 M 0.03,5.529 C 2.915,5.513 5.505,4.958 7.792,3.866 c 2.288,-1.102 4.213,-2.571 5.8,-4.423 1.575,-1.851 2.784,-4.004 3.618,-6.457 0.83,-2.47 1.246,-5.069 1.231,-7.812 -0.015,-2.785 -0.459,-5.395 -1.316,-7.856 -0.86,-2.453 -2.093,-4.592 -3.687,-6.418 -1.607,-1.842 -3.548,-3.282 -5.848,-4.335 -2.299,-1.051 -4.894,-1.562 -7.779,-1.546 -2.893,0.016 -5.487,0.554 -7.77,1.63 -2.287,1.078 -4.224,2.538 -5.802,4.398 -1.579,1.844 -2.784,3.996 -3.623,6.458 -0.836,2.47 -1.241,5.084 -1.226,7.869 0.014,2.744 0.448,5.338 1.311,7.799 0.865,2.444 2.093,4.583 3.693,6.417 1.598,1.835 3.549,3.283 5.848,4.36 2.296,1.068 4.896,1.594 7.788,1.579"
       style="fill:#093158;fill-opacity:1;fill-rule:nonzero;stroke:none"
       transform="matrix(1.3333333,0,0,-1.3333333,945.2372,147.408)"
       clip-path="url(#clipPath42)" /><path
       id="path43"
       d="m 0,0 11.111,-0.06 c 2.166,-0.012 3.816,0.504 4.935,1.522 1.127,1.025 1.692,2.562 1.704,4.618 0.007,1.229 -0.168,2.238 -0.525,3.001 -0.356,0.788 -0.848,1.397 -1.472,1.835 -0.637,0.437 -1.356,0.735 -2.166,0.879 -0.822,0.144 -1.653,0.222 -2.513,0.226 l -11.009,0.06 z m -6.661,17.646 18.462,-0.1 c 4.266,-0.023 7.451,-0.962 9.575,-2.82 2.12,-1.854 3.171,-4.415 3.152,-7.708 C 24.519,5.175 24.236,3.654 23.689,2.452 23.146,1.243 22.511,0.271 21.781,-0.47 21.049,-1.203 20.345,-1.731 19.639,-2.056 18.924,-2.371 18.416,-2.581 18.083,-2.694 l -10e-4,-0.111 c 0.578,-0.072 1.204,-0.256 1.869,-0.555 0.671,-0.29 1.278,-0.752 1.868,-1.394 0.571,-0.625 1.041,-1.447 1.42,-2.473 0.371,-1.001 0.554,-2.272 0.545,-3.787 -0.012,-2.277 0.149,-4.35 0.478,-6.211 0.331,-1.853 0.864,-3.191 1.572,-3.989 l -7.249,0.039 c -0.495,0.838 -0.801,1.757 -0.878,2.765 -0.093,1.009 -0.128,1.991 -0.123,2.932 0.01,1.77 -0.088,3.294 -0.295,4.581 -0.222,1.283 -0.613,2.355 -1.178,3.201 -0.577,0.855 -1.355,1.482 -2.34,1.88 -0.998,0.407 -2.266,0.607 -3.823,0.615 l -9.976,0.054 -0.086,-15.927 -6.756,0.037 z"
       style="fill:#093158;fill-opacity:1;fill-rule:nonzero;stroke:none"
       transform="matrix(1.3333333,0,0,-1.3333333,1001.5407,165.044)"
       clip-path="url(#clipPath44)" /><path
       id="path45"
       d="M 0,0 27.848,-0.15 27.815,-5.999 6.737,-5.884 6.683,-16.016 26.188,-16.121 26.159,-21.65 6.653,-21.544 6.592,-32.855 28.046,-32.972 28.015,-38.836 -0.21,-38.684 Z"
       style="fill:#093158;fill-opacity:1;fill-rule:nonzero;stroke:none"
       transform="matrix(1.3333333,0,0,-1.3333333,1057.9429,141.86893)"
       clip-path="url(#clipPath46)" /><path
       id="path47"
       d="m 0,0 c -2.553,2.584 -3.194,3.019 -5.97,3.034 -2.564,-0.2 -4.068,-1.055 -4.075,-2.329 -0.012,-2.139 2.122,-3.007 3.617,-3.016 C -4.503,-2.321 -2.786,-1.909 0,0 m -31.649,39.109 c 0.027,5.133 13.527,10.186 19.296,10.155 C 13.316,49.125 28.226,37.704 28.113,16.968 28.075,9.904 24.196,3.939 18.611,-0.311 c 5.529,-6.231 9.331,-14.382 13.785,-22.103 0.641,-1.077 0.835,-2.568 0.83,-3.642 -0.023,-4.277 -3.673,-7.465 -6.456,-7.45 -0.854,0.005 -1.492,0.218 -2.136,0.867 -0.631,0.868 -10.826,15.458 -18.89,25.772 -4.075,-1.048 -8.14,-1.666 -11.992,-1.645 -6.842,0.037 -11.523,4.757 -11.489,10.971 0.022,4.059 6.676,7.878 12.022,7.85 5.342,-0.029 9.83,-1.132 13.673,-2.866 2.797,3.418 4.745,7.256 4.762,10.247 0.089,16.471 -18.506,19.348 -28.558,19.402 -4.274,0.023 -8.143,-2.518 -11.569,-2.714 -2.98,1.519 -4.25,3.221 -4.242,4.731 m 4.34,-66.551 c -4.701,0.025 -10.253,4.122 -10.218,10.329 0.319,18.389 2.306,28.859 8.169,46.582 0.876,3.205 5.164,4.677 8.797,4.657 2.996,-0.016 5.553,-1.1 5.539,-3.667 -4.369,-17.946 -5.317,-35.264 -6.699,-52.798 -0.443,-3.417 -2.806,-5.118 -5.588,-5.103"
       style="fill:#093158;fill-opacity:1;fill-rule:nonzero;stroke:none"
       transform="matrix(1.3333333,0,0,-1.3333333,420.49107,149.30773)"
       clip-path="url(#clipPath48)" /><path
       id="path49"
       d="m 0,0 c -5.409,-4.331 -17.664,-14.031 -32.522,-14.208 -12.395,-0.147 -19.317,8.112 -20.669,16.83 -0.724,4.66 1.463,10.989 2.954,17.3 -0.984,2.023 -2.303,3.224 -2.618,5.255 -0.251,1.618 0.297,2.445 0.501,4.068 1.705,0.634 3.606,1.463 5.602,1.694 l 3.669,11.22 c -5.523,2.165 -13.584,4.71 -14.245,8.971 -0.346,2.225 1.585,2.861 5.375,3.109 9.399,0.522 19.871,4.299 38.334,4.518 2.021,0.024 4.522,-0.149 9.449,-1.304 2.371,-2.207 8.204,-6.412 8.738,-9.855 0.316,-2.03 -7.211,-4.354 -11.459,-4.612 -9.588,-0.715 -11.866,-0.538 -17.916,-0.814 -1.127,-0.013 -2.257,-0.026 -3.35,-0.239 -0.768,-0.83 -2.163,-3.481 -1.376,-8.554 0.126,-0.813 0.755,-2.026 2.337,-2.007 l 16.671,0.198 3.209,-0.369 c 1.35,-1.404 1.981,-4.037 2.263,-5.862 0.253,-1.624 0.274,-4.666 -1.719,-4.9 -4.029,-0.248 -14.101,-0.771 -25.352,-0.904 -0.451,-0.006 -0.902,-0.011 -1.227,-0.832 -0.462,-4.268 -1.732,-9.165 -3.294,-13.657 1.131,0.014 9.373,2.153 23.595,3.536 2.217,0.23 5.109,0.471 7.366,0.498 2.7,0.032 6.151,-3.385 6.56,-6.018 C 1.065,1.84 1.035,0.629 0,0"
       style="fill:#093158;fill-opacity:1;fill-rule:nonzero;stroke:none"
       transform="matrix(1.3333333,0,0,-1.3333333,540.3336,169.77387)"
       clip-path="url(#clipPath50)" /><path
       id="path51"
       d="M 0,0 C 1.85,-0.06 4.108,-0.134 5.934,0.021 5.394,3.977 3.94,13.13 0.611,18.007 -2.152,17.271 -5.027,5.35 -5.784,0.403 -3.911,0.127 -1.852,0.061 0,0 m -2.147,44.201 1.226,-0.04 c 2.691,-0.088 6.045,-3.721 6.848,-6.644 1.516,-3.572 6.618,-13.896 8.205,-19.532 4.942,-18.189 7.984,-28.442 10.173,-44.464 0.996,-7.289 1.252,-9.161 0.97,-11.634 -0.557,-0.396 -1.352,-0.582 -2.176,-0.555 -3.903,0.127 -7.59,4.597 -10.581,10.082 l -2.474,12.102 -6.595,0.215 c -7.191,0.234 -9.695,0.523 -11.336,0.577 -0.615,0.02 -1.034,0.033 -1.208,-0.168 -2.943,-0.945 -3.274,-9.004 -5.097,-16.62 l -1.447,-5.952 c -0.882,-1.018 -2.648,-1.573 -4.709,-1.506 -1.231,0.04 -2.52,0.49 -4.2,0.75 -3.31,3.222 -4.7,5.961 -5.297,10.326 -0.682,5.001 0.521,11.173 3.319,17.712 -0.456,3.334 -2.8,6.931 -7.201,7.696 l -0.127,3.935 c 0.849,-0.231 1.882,-0.265 2.909,-0.298 l 6.783,-0.222 c 2.325,6.971 7.506,21.51 11.414,28.847 l 8.208,11.948 0.269,2.481 c 0.473,1.018 1.097,0.997 2.124,0.964"
       style="fill:#093158;fill-opacity:1;fill-rule:nonzero;stroke:none"
       transform="matrix(1.3333333,0,0,-1.3333333,590.17213,140.82333)"
       clip-path="url(#clipPath52)" /><path
       id="path53"
       d="m 0,0 c 5.778,-0.031 6.805,-8.379 7.185,-16.72 0.172,-6.843 0.356,-13.27 0.762,-16.047 2.835,7.478 10.644,28.175 27.324,28.085 6.211,-0.034 10.881,-6.466 11.27,-11.18 0.391,-8.345 2.859,-63.972 -3.55,-64.149 -11.554,-0.583 -12.305,17.608 -12.512,20.383 -0.187,3.638 -0.346,14.976 -0.295,24.39 0.034,6.41 0.287,12.188 0.723,13.688 -10.508,-4.226 -14.521,-35 -18.864,-47.178 -0.66,-1.917 -3.443,-2.972 -5.581,-2.961 -11.122,-0.368 -14.078,47.563 -14.048,53.125 -10.507,-6.793 -21.252,-14.214 -21.2,-44.16 -0.046,-8.556 -0.513,-15.618 -7.571,-15.791 -3.206,-0.186 -5.338,1.098 -6.807,6.031 -1.47,4.716 -2.454,20.76 -2.42,26.96 0.047,8.77 0.951,18.175 2.487,25.653 1.971,8.549 2.651,14.964 10.13,14.923 5.996,-0.032 6.586,-9.241 7.211,-12.447 C -24.463,-15.267 -11.973,0.065 0,0"
       style="fill:#093158;fill-opacity:1;fill-rule:nonzero;stroke:none"
       transform="matrix(1.3333333,0,0,-1.3333333,691.30493,87.5688)"
       clip-path="url(#clipPath54)" /><path
       id="path55"
       d="m 0,0 c 0.095,5.497 -1.091,10.978 -3.521,16.291 -2.421,5.302 -5.699,10.429 -9.741,15.239 -4.07,4.848 -8.723,9.441 -13.829,13.651 -5.155,4.267 -10.478,8.169 -15.826,11.608 -5.324,3.434 -10.655,6.489 -15.853,9.1 -5.141,2.581 -9.808,4.698 -13.865,6.292 -7.811,2.845 -16.253,5.392 -24.93,7.501 -7.798,1.914 -18.033,3.137 -27.369,3.297 -3.842,0.066 -7.608,-0.042 -11.188,-0.324 -2.373,-0.191 -4.94,-0.624 -8.069,-1.35 -3.008,-0.693 -5.219,-1.47 -6.961,-2.43 -2.709,-1.496 -4.061,-3.007 -4.757,-4.213 -1.226,-1.225 -1.701,-2.32 -1.881,-3.04 -0.011,-0.049 -0.022,-0.105 -0.033,-0.154 -0.012,-0.056 -0.028,-0.112 -0.036,-0.161 -0.215,-1.053 -0.056,-1.994 -0.072,-2.303 -0.036,-0.652 0.168,-1.017 0.244,-1.092 0.108,0.023 0.785,0.274 1.226,0.439 0.888,0.325 2.183,0.795 3.955,1.255 2.508,0.632 4.989,0.877 7.095,1.03 2.394,0.177 4.715,0.246 6.907,0.209 10.81,-0.186 21.079,-1.258 30.513,-3.191 2.859,-0.586 5.736,-1.256 8.564,-1.994 l 0.25,-0.063 1.16,-0.344 1.874,-0.576 6.203,-1.673 4.006,-1.389 2.133,-0.767 c 1.499,-0.532 2.999,-1.083 4.496,-1.654 4.504,-1.724 9.295,-3.798 14.234,-6.169 4.95,-2.385 9.812,-5.042 14.456,-7.889 4.665,-2.862 9.187,-6.03 13.434,-9.431 4.253,-3.388 7.998,-7.048 11.133,-10.873 3.13,-3.812 5.647,-7.879 7.469,-12.075 1.753,-4.04 2.609,-8.282 2.592,-12.637 -0.135,-4.492 -1.134,-8.372 -3.011,-11.515 -1.978,-3.309 -4.601,-6.157 -7.79,-8.452 -3.237,-2.328 -6.937,-4.182 -11.001,-5.531 -3.97,-1.308 -8.105,-2.347 -12.286,-3.086 -4.26,-0.752 -8.396,-1.194 -12.285,-1.327 -1.661,-0.048 -3.409,-0.05 -5.257,-0.019 -6.956,0.12 -13.541,2.495 -17.057,3.83 -0.165,0.063 -0.36,0.157 -0.578,0.273 -1.197,0.821 -2.248,1.605 -2.248,1.605 l -1.895,64.669 0.011,0.15 c 0.06,1.282 -0.231,2.53 -0.857,3.6 l -2.319,3.998 -2.169,-0.932 -0.07,0.114 -3.721,-1.577 c -1.937,-0.834 -3.292,-2.829 -3.426,-5.099 l -0.596,-4.295 -3.12,-74.559 -0.214,-1.246 c -10e-4,-0.029 0.006,-0.05 0.006,-0.078 l -0.009,-0.049 c -0.024,-1.888 1.419,-3.388 2.856,-4.41 0.693,-1.023 1.721,-1.863 2.668,-2.469 2.158,-1.393 4.637,-2.11 6.035,-2.19 l 0.712,-0.04 c 0.819,-0.049 1.53,-0.103 2.195,-0.114 2.62,-0.045 2.943,0.743 3.205,1.363 l 1.8,4.309 5.659,-0.877 c 4.053,-0.617 11.924,-1.693 19.103,-1.845 l 0.362,-0.006 c 6.974,-0.12 14.179,0.614 21.415,2.188 7.208,1.576 13.799,4.068 19.585,7.41 5.828,3.348 10.659,7.69 14.369,12.893 3.889,5.447 5.781,15.401 5.9,22.344 0.002,0.092 -0.014,0.19 -0.012,0.282 C -0.021,-0.386 -0.003,-0.183 0,0"
       style="fill:#093158;fill-opacity:1;fill-rule:nonzero;stroke:none"
       transform="matrix(1.3333333,0,0,-1.3333333,362.17867,141.78947)"
       clip-path="url(#clipPath56)" /></g></svg>
